<svg width="680" height="360" viewBox="0 0 680 360" fill="none" xmlns="http://www.w3.org/2000/svg">
  <defs>
    <linearGradient id="g1" x1="0" y1="0" x2="1" y2="1">
      <stop offset="0" stop-color="#6EC1FF"/>
      <stop offset="1" stop-color="#3B82F6"/>
    </linearGradient>
    <linearGradient id="g2" x1="0" y1="0" x2="1" y2="1">
      <stop offset="0" stop-color="#183B6A"/>
      <stop offset="1" stop-color="#0E2644"/>
    </linearGradient>
  </defs>
  <path d="M390 60c10 40 80 30 100 45 8 6 6 28 14 31 18 7 28 13 33 18 6 7 6 14 0 22-9 11-22 33-26 44-94-47-236-69-330-72 67-47 167-92 209-88z" fill="url(#g1)"/>
  <path d="M160 150c86-6 190 8 330 72-123-29-212-11-290 58 1-47 23-98 40-130 10-18 20-31 36-46-40-1-77 12-116 46z" fill="url(#g2)" opacity=".65"/>
  <circle cx="509" cy="108" r="12" fill="#0E2644"/>
</svg>



